<?xml version="1.0" standalone="no"?>
<!DOCTYPE svg PUBLIC "-//W3C//DTD SVG 20010904//EN"
 "http://www.w3.org/TR/2001/REC-SVG-20010904/DTD/svg10.dtd">
<svg version="1.0" xmlns="http://www.w3.org/2000/svg"
 width="893.000000pt" height="893.000000pt" viewBox="0 0 893.000000 893.000000"
 preserveAspectRatio="xMidYMid meet">
<metadata>
Created by potrace 1.14, written by Peter Selinger 2001-2017
</metadata>
<g transform="translate(0.000000,893.000000) scale(0.100000,-0.100000)"
fill="#000000" stroke="none">
<path d="M5442 8736 c-1 -22 4 -46 10 -53 6 -7 7 -28 4 -49 -4 -19 -3 -41 2
-47 5 -7 19 -57 31 -112 34 -155 39 -177 51 -228 6 -26 8 -52 5 -58 -4 -5 -2
-9 3 -9 33 0 36 -170 6 -400 -12 -96 -95 -402 -115 -426 -7 -8 -9 -17 -6 -20
3 -4 -3 -29 -14 -58 -11 -28 -22 -62 -25 -75 -3 -13 -16 -51 -31 -85 -14 -33
-27 -71 -30 -85 -2 -13 -13 -37 -23 -52 -11 -15 -20 -32 -20 -37 0 -19 -58
-120 -65 -114 -5 4 -5 -5 -2 -19 11 -43 -40 -172 -81 -206 -18 -15 -59 -7 -86
16 -10 9 -21 15 -25 15 -13 -3 -31 9 -31 19 0 15 -70 77 -86 77 -7 0 -19 12
-26 28 -15 31 -33 35 -66 15 -12 -8 -27 -11 -32 -8 -6 4 -13 -1 -16 -9 -5 -12
-11 -13 -32 -4 -15 6 -36 11 -47 12 -11 1 -26 5 -33 10 -7 4 -11 4 -10 -1 5
-14 -26 -49 -42 -48 -19 1 -41 -15 -35 -25 2 -4 -8 -6 -23 -5 -15 1 -31 -1
-37 -4 -9 -4 -25 -8 -62 -13 -7 -1 -10 -5 -7 -9 2 -4 -4 -13 -15 -19 -14 -7
-19 -19 -17 -38 3 -38 -33 -69 -91 -78 -27 -4 -66 -16 -88 -28 -38 -20 -115
-29 -140 -15 -5 3 -37 14 -70 24 -33 11 -68 26 -79 35 -14 12 -42 15 -138 13
-118 -3 -120 -3 -160 -35 -22 -17 -52 -48 -67 -68 -14 -20 -32 -35 -39 -32 -6
2 -12 -1 -12 -8 0 -6 -4 -9 -9 -6 -5 3 -20 -3 -34 -14 -14 -11 -32 -20 -40
-20 -9 0 -23 -7 -31 -16 -15 -14 -17 -14 -22 3 -3 10 -10 29 -15 43 -15 41 -2
415 17 490 9 36 17 75 17 87 1 11 6 19 11 16 5 -3 6 5 3 18 -8 32 3 76 14 58
5 -9 10 -4 15 17 4 16 10 34 14 39 12 17 40 142 46 203 3 31 9 86 14 122 16
115 22 294 12 320 l-10 25 -11 -28 c-6 -16 -12 -40 -12 -55 -1 -15 -5 -2 -10
28 -5 30 -9 156 -10 280 -1 124 -5 230 -10 235 -4 6 -10 22 -12 35 -9 58 -58
120 -114 147 -28 13 -38 13 -63 3 -17 -7 -47 -10 -72 -6 -74 10 -103 -19 -278
-282 -85 -127 -161 -240 -168 -249 -21 -30 -102 -165 -102 -170 0 -2 -13 -23
-29 -46 -33 -49 -161 -310 -161 -330 0 -7 -4 -17 -9 -22 -36 -41 -85 -254
-107 -465 -3 -36 -8 -72 -9 -80 -2 -9 -6 -58 -9 -110 -4 -52 -9 -116 -12 -143
-9 -83 -7 -581 3 -607 6 -14 11 -47 12 -75 1 -27 4 -63 7 -80 4 -28 10 -86 30
-290 7 -72 8 -185 1 -192 -4 -3 -47 -11 -69 -12 -21 -1 -68 -41 -72 -61 -6
-30 -18 -50 -31 -50 -28 0 -114 -81 -154 -144 -64 -102 -72 -207 -21 -279 47
-66 121 -146 141 -152 16 -5 19 -12 13 -40 -5 -28 -1 -39 20 -62 27 -29 33
-26 15 10 -10 22 -10 22 6 2 9 -11 14 -28 11 -37 -2 -10 1 -18 7 -18 7 0 5 -4
-3 -10 -12 -7 -13 -15 -4 -37 15 -40 -3 -55 -56 -47 -38 6 -41 5 -54 -27 -8
-21 -16 -93 -20 -189 -3 -85 -8 -189 -11 -230 -3 -41 -2 -69 1 -62 5 10 12 9
32 -4 45 -28 82 -67 82 -85 0 -20 27 -33 32 -17 3 8 12 7 27 -4 13 -9 29 -14
36 -12 7 3 16 1 19 -4 8 -13 -52 -34 -68 -25 -16 11 -116 12 -110 2 3 -5 -1
-7 -8 -4 -19 7 -73 -10 -71 -23 1 -5 -4 -16 -12 -22 -8 -7 -15 -19 -15 -26 0
-7 -6 -11 -13 -8 -16 6 -44 -23 -49 -51 -1 -11 -5 -22 -8 -25 -28 -27 -60 -75
-60 -90 0 -10 9 -22 20 -25 12 -4 17 -11 13 -18 -9 -15 -10 -61 -1 -67 18 -14
-12 -61 -63 -104 -55 -44 -109 -127 -109 -167 0 -10 -5 -19 -10 -21 -16 -5
-30 -112 -23 -181 11 -121 18 -152 33 -152 18 0 106 -156 115 -205 4 -19 10
-39 15 -45 15 -20 20 -63 7 -68 -7 -3 -6 -6 5 -6 16 -1 20 -16 31 -135 1 -11
-4 -21 -12 -24 -10 -3 -12 0 -8 12 4 9 3 14 -2 11 -5 -3 -11 5 -13 17 -6 43
-26 30 -34 -24 -13 -80 -7 -121 30 -229 19 -55 32 -99 28 -99 -3 0 -1 -5 5
-11 6 -6 9 -18 6 -27 -4 -10 -2 -13 5 -8 16 10 32 -34 21 -56 -12 -22 -11 -28
2 -28 5 0 7 4 4 10 -3 5 -1 10 4 10 6 0 11 -5 11 -11 0 -5 4 -7 10 -4 6 4 7
-1 3 -11 -4 -12 -3 -15 5 -10 8 5 10 -22 6 -101 -5 -107 -13 -139 -44 -177
-13 -17 -13 -18 0 -11 12 7 13 6 4 -6 -12 -14 -20 -69 -30 -184 -3 -33 -7
-200 -9 -372 -5 -363 -8 -384 -91 -565 -58 -126 -64 -141 -108 -243 -15 -33
-33 -73 -41 -89 -9 -16 -14 -30 -12 -32 2 -2 1014 -3 2249 -2 l2245 3 -10 25
c-5 14 -11 36 -13 50 -2 13 -10 30 -18 36 -9 6 -13 14 -9 17 3 4 -1 15 -10 24
-8 10 -19 30 -22 45 -4 16 -11 28 -16 28 -5 0 -9 8 -9 18 0 10 -5 23 -12 30
-9 9 -9 12 1 12 8 0 11 6 6 18 -4 9 -9 37 -11 62 -12 105 -11 130 2 141 7 6
16 25 19 43 3 17 8 45 11 61 11 56 19 395 13 518 -4 83 -3 127 5 138 6 9 31
45 56 80 24 35 43 65 42 67 -7 8 1 25 18 42 l20 20 -20 0 c-11 0 -20 -5 -20
-12 0 -6 -2 -9 -5 -6 -10 10 8 39 21 34 17 -7 18 6 2 23 -10 11 -10 13 0 7 6
-4 12 -4 13 1 0 4 2 26 4 48 3 27 -2 52 -15 77 -15 29 -18 49 -14 85 6 53 43
153 56 153 4 0 8 9 8 20 0 11 4 20 8 20 15 0 74 129 68 147 -4 9 -2 19 3 22 9
6 20 44 25 86 1 11 4 25 8 30 3 6 4 27 2 48 -1 20 0 37 4 37 4 0 8 8 8 18 1 9
5 53 10 97 5 44 9 151 8 238 0 86 4 157 8 157 5 0 4 9 -2 20 -6 12 -8 47 -4
92 4 40 7 88 8 106 l1 33 61 -2 c33 -1 65 0 70 3 5 2 47 5 94 6 130 2 164 15
241 91 36 37 84 95 105 131 21 36 41 67 45 70 11 9 63 184 64 212 0 15 4 28 8
28 4 0 7 60 7 133 -1 72 1 143 4 157 22 103 23 390 2 528 -4 24 -4 42 1 39 4
-3 6 16 4 41 -4 41 -5 44 -12 22 -8 -22 -8 -21 -3 5 9 52 10 79 2 135 -8 57
-15 95 -18 95 -1 0 -3 12 -5 27 -2 16 -7 38 -11 50 -4 13 -8 28 -9 33 -1 11
-14 62 -21 85 -3 8 -6 17 -6 20 -2 13 -115 219 -137 250 -61 85 -161 164 -224
175 -29 6 -37 13 -42 35 -3 16 -13 34 -21 41 -8 6 -14 18 -14 25 0 8 -11 32
-25 54 -14 22 -25 42 -25 44 0 8 -44 70 -67 95 -12 13 -20 28 -17 33 3 5 -3
12 -15 15 -12 3 -21 12 -21 20 0 8 -13 19 -30 24 -16 6 -31 14 -31 17 -1 4 -2
45 -3 92 -1 63 -6 92 -19 110 -9 13 -17 32 -17 42 0 10 -4 18 -10 18 -5 0 -10
8 -10 18 0 23 -19 42 -43 42 -10 0 -15 5 -12 10 3 6 -1 10 -9 10 -8 0 -22 7
-30 16 -9 8 -16 12 -16 7 0 -4 -4 -3 -8 3 -4 7 -22 20 -41 31 -40 22 -51 43
-24 43 13 0 28 19 50 63 44 87 67 141 65 150 -1 4 2 7 8 7 5 0 10 11 10 25 0
14 5 25 10 25 6 0 10 10 10 23 0 13 5 28 10 33 6 6 13 24 16 39 3 16 8 33 11
39 4 6 7 47 8 93 1 50 6 88 14 97 8 9 10 16 5 16 -5 0 -1 5 9 11 18 11 24 49
7 49 -5 0 -10 5 -10 10 0 6 8 10 18 10 14 0 14 2 3 9 -16 10 -17 137 -1 156 6
7 7 15 3 18 -3 4 -8 49 -9 99 -5 128 -10 201 -18 225 -4 12 -9 50 -12 85 -11
125 -13 137 -24 159 -10 17 -9 20 1 13 7 -4 4 8 -8 27 -11 19 -19 39 -16 46 2
6 -5 28 -16 49 -12 21 -21 49 -21 61 0 13 -4 23 -8 23 -4 0 -16 23 -27 50 -11
28 -24 50 -29 50 -5 0 -6 3 -3 6 3 4 -9 36 -28 72 -19 36 -31 70 -28 75 3 6 2
7 -4 4 -9 -6 -42 49 -39 64 0 4 -6 15 -14 25 -9 11 -21 30 -28 44 -7 14 -26
40 -42 59 -17 18 -30 38 -30 43 0 5 -17 26 -37 46 -21 21 -58 60 -83 88 -47
51 -140 125 -184 146 -14 6 -23 14 -21 18 4 6 -30 21 -44 19 -2 0 -7 3 -10 8
-3 5 -20 19 -38 31 -33 23 -68 29 -78 12 -4 -6 -11 -8 -16 -4 -5 3 -7 9 -5 13
3 3 -4 7 -14 7 -14 0 -18 -9 -18 -40z"/>
</g>
</svg>
